<svg width="23" height="23" viewBox="0 0 23 23" fill="none" xmlns="http://www.w3.org/2000/svg">
<path d="M21.0162 6.47826L17.7867 19.4445C17.6746 19.9134 17.4071 20.3306 17.0278 20.6281C16.6485 20.9257 16.1796 21.0861 15.6975 21.0833H3.105C1.65791 21.0833 0.622913 19.6649 1.05416 18.2753L5.08875 5.31867C5.22356 4.87927 5.49525 4.49445 5.86418 4.22034C6.23311 3.94623 6.67997 3.79718 7.13958 3.79492H18.9271C19.8375 3.79492 20.5946 4.35076 20.9108 5.11742C21.0929 5.52951 21.1312 5.99909 21.0162 6.47826Z" stroke="white" stroke-width="1.5" stroke-miterlimit="10"/>
<path d="M15.3333 21.0833H19.9142C21.1504 21.0833 22.1183 20.0388 22.0321 18.8025L21.0833 5.75002M9.27667 6.11418L10.2733 1.97418M15.6975 6.12377L16.5983 1.9646M7.37917 11.5H15.0458M6.42084 15.3333H14.0875" stroke="white" stroke-width="1.5" stroke-miterlimit="10" stroke-linecap="round" stroke-linejoin="round"/>
</svg>
