<svg width="40" height="40" viewBox="0 0 40 40" fill="none" xmlns="http://www.w3.org/2000/svg">
<g clip-path="url(#clip0_1239_798)">
<path d="M20 0C25.5219 0 30.5227 2.23906 34.1414 5.85859C37.7609 9.47734 40 14.4781 40 20C40 25.5219 37.7609 30.5227 34.1414 34.1414C30.5227 37.7609 25.5219 40 20 40C14.4781 40 9.47734 37.7609 5.85859 34.1414C2.23906 30.5227 0 25.5219 0 20C0 14.4781 2.23906 9.47734 5.85859 5.85859C9.47734 2.23906 14.4781 0 20 0Z" fill="#999999"/>
<path d="M20 1.52188C25.1016 1.52188 29.7234 3.59063 33.0664 6.9336L33.1516 7.02579C36.4437 10.3625 38.4781 14.9453 38.4781 19.9992C38.4781 25.1016 36.4078 29.7227 33.0648 33.0656L32.9726 33.1508C29.6344 36.4445 25.0508 38.4781 20 38.4781C14.9039 38.4781 10.2836 36.407 6.93905 33.0617C3.59218 29.7227 1.52264 25.1016 1.52264 19.9992C1.52264 14.8969 3.59139 10.2766 6.93436 6.9336C10.2773 3.59063 14.8984 1.52188 20 1.52188Z" fill="white"/>
<path d="M20 3.09296C29.3375 3.09296 36.907 10.6625 36.907 19.9992C36.907 29.3367 29.3375 36.907 20 36.907C10.6633 36.907 3.09375 29.3367 3.09375 19.9992C3.09375 10.6625 10.6633 3.09296 20 3.09296Z" fill="#FEFEFE"/>
<path d="M14.3352 14.0273V4.06641C11.1071 5.21485 8.33127 7.31719 6.34534 10.0313L14.3352 14.0273ZM14.3352 25.9727V35.9336C11.1086 34.7852 8.33362 32.6844 6.34612 29.9688L14.3352 25.9727ZM25.6282 25.9727V35.9469C28.8664 34.8039 31.6508 32.7016 33.6446 29.9828L25.6282 25.9727ZM25.6282 14.0273V4.05313C28.8664 5.1961 31.6524 7.29844 33.6453 10.018L25.6282 14.0273Z" fill="#012169"/>
<path d="M35.0234 25.6375H31.2648L35.1203 27.5687C35.3711 27.068 35.5977 26.5531 35.7992 26.0258L35.0234 25.6375ZM34.2938 10.9687L27.5422 14.3539H31.3008L35.125 12.4398C34.8727 11.9351 34.5945 11.4437 34.2938 10.9687ZM16.5945 23.3797V36.5633C17.6945 36.7875 18.8336 36.907 20 36.907C21.1531 36.907 22.2805 36.7906 23.3695 36.5711V23.3797H36.568C36.7891 22.2875 36.907 21.1578 36.907 19.9992C36.907 18.8367 36.7891 17.7008 36.5656 16.6031H23.3695V3.42968C22.2604 3.20547 21.1316 3.09267 20 3.09296C18.8336 3.09296 17.6945 3.21327 16.5945 3.43671V16.6031H3.43516C3.20781 17.7208 3.09343 18.8586 3.09375 19.9992C3.09375 21.1578 3.21172 22.2875 3.43281 23.3797H16.5945ZM4.93125 14.3625H8.68984L4.87031 12.45C4.62031 12.9508 4.39297 13.4672 4.19219 13.9937L4.93125 14.3625ZM12.4211 25.6461H8.6625L4.86797 27.5453C5.12142 28.0522 5.40016 28.546 5.70313 29.025L12.4555 25.6461H12.4211Z" fill="#C8102E"/>
</g>
<defs>
<clipPath id="clip0_1239_798">
<rect width="40" height="40" fill="white"/>
</clipPath>
</defs>
</svg>
