<svg width="25" height="25" viewBox="0 0 25 25" fill="none" xmlns="http://www.w3.org/2000/svg">
<path d="M12.5 13.9895C12.9268 13.9895 13.3494 13.9054 13.7437 13.7421C14.138 13.5788 14.4963 13.3394 14.7981 13.0376C15.0999 12.7358 15.3393 12.3775 15.5026 11.9832C15.6659 11.5889 15.75 11.1663 15.75 10.7395C15.75 10.3127 15.6659 9.89009 15.5026 9.49578C15.3393 9.10147 15.0999 8.7432 14.7981 8.4414C14.4963 8.13961 14.138 7.90022 13.7437 7.73689C13.3494 7.57357 12.9268 7.4895 12.5 7.4895C11.638 7.4895 10.8114 7.83191 10.2019 8.4414C9.59241 9.0509 9.25 9.87755 9.25 10.7395C9.25 11.6015 9.59241 12.4281 10.2019 13.0376C10.8114 13.6471 11.638 13.9895 12.5 13.9895V13.9895Z" stroke="white" stroke-width="1.5"/>
<path d="M3.77083 8.84367C5.82291 -0.177162 19.1875 -0.166746 21.2292 8.85409C22.4271 14.1458 19.1354 18.6249 16.25 21.3958C15.2417 22.3682 13.8956 22.9116 12.4948 22.9116C11.094 22.9116 9.74784 22.3682 8.73958 21.3958C5.86458 18.6249 2.57291 14.1353 3.77083 8.84367V8.84367Z" stroke="white" stroke-width="1.5"/>
</svg>
