<svg width="25" height="25" viewBox="0 0 25 25" fill="none" xmlns="http://www.w3.org/2000/svg">
<path d="M18.7917 14.1147C18.3542 14.5417 18.1042 15.1563 18.1667 15.8126C18.2604 16.9376 19.2917 17.7605 20.4167 17.7605H22.3958V19.0001C22.3958 21.1563 20.6354 22.9167 18.4792 22.9167H6.52084C4.36459 22.9167 2.60417 21.1563 2.60417 19.0001V11.9897C2.60417 9.83341 4.36459 8.073 6.52084 8.073H18.4792C20.6354 8.073 22.3958 9.83341 22.3958 11.9897V13.4897H20.2917C19.7083 13.4897 19.1771 13.7188 18.7917 14.1147Z" stroke="white" stroke-width="1.5" stroke-linecap="round" stroke-linejoin="round"/>
<path d="M2.60417 12.9271V8.16669C2.60417 6.92711 3.36459 5.82294 4.52084 5.38544L12.7917 2.26044C13.0913 2.14751 13.414 2.10899 13.7318 2.14818C14.0496 2.18737 14.3532 2.3031 14.6165 2.48544C14.8797 2.66778 15.0948 2.91128 15.2433 3.19505C15.3917 3.47881 15.4691 3.79436 15.4688 4.11461V8.07294M7.29167 12.5H14.5833M23.499 14.5521V16.6979C23.499 17.2709 23.0406 17.7396 22.4573 17.7604H20.4156C19.2906 17.7604 18.2594 16.9375 18.1656 15.8125C18.1031 15.1563 18.3531 14.5417 18.7906 14.1146C19.176 13.7188 19.7073 13.4896 20.2906 13.4896H22.4573C23.0406 13.5104 23.499 13.9792 23.499 14.5521V14.5521Z" stroke="white" stroke-width="1.5" stroke-linecap="round" stroke-linejoin="round"/>
</svg>
