<svg width="124" height="65" viewBox="0 0 124 65" fill="none" xmlns="http://www.w3.org/2000/svg">
<path d="M13.524 22V0.699999H16.884V19.03H28.314V22H13.524ZM30.6236 22V6.31H33.9236V22H30.6236ZM30.6236 3.73V0.0999994H33.9236V3.73H30.6236ZM44.0992 22.15C43.0392 22.15 42.0692 21.94 41.1892 21.52C40.3092 21.08 39.5492 20.49 38.9092 19.75C38.2892 19.01 37.7992 18.16 37.4392 17.2C37.0992 16.24 36.9292 15.23 36.9292 14.17C36.9292 13.05 37.1092 12 37.4692 11.02C37.8292 10.04 38.3292 9.18 38.9692 8.44C39.6292 7.68 40.3992 7.09 41.2792 6.67C42.1592 6.25 43.1392 6.04 44.2192 6.04C45.4792 6.04 46.5792 6.34 47.5192 6.94C48.4792 7.54 49.2692 8.32 49.8892 9.28V6.31H52.7992V21.55C52.7992 23.07 52.4292 24.36 51.6892 25.42C50.9692 26.48 49.9792 27.29 48.7192 27.85C47.4592 28.41 46.0392 28.69 44.4592 28.69C42.7192 28.69 41.2792 28.39 40.1392 27.79C38.9992 27.19 38.0292 26.37 37.2292 25.33L39.0892 23.59C39.6892 24.43 40.4592 25.07 41.3992 25.51C42.3592 25.95 43.3792 26.17 44.4592 26.17C45.3592 26.17 46.1892 26 46.9492 25.66C47.7292 25.34 48.3492 24.83 48.8092 24.13C49.2692 23.45 49.4992 22.59 49.4992 21.55V19.15C48.9392 20.09 48.1692 20.83 47.1892 21.37C46.2092 21.89 45.1792 22.15 44.0992 22.15ZM45.1792 19.48C45.6792 19.48 46.1592 19.4 46.6192 19.24C47.0792 19.06 47.4992 18.83 47.8792 18.55C48.2792 18.25 48.6192 17.92 48.8992 17.56C49.1792 17.18 49.3792 16.78 49.4992 16.36V12.25C49.2392 11.57 48.8692 10.98 48.3892 10.48C47.9092 9.96 47.3692 9.56 46.7692 9.28C46.1692 9 45.5592 8.86 44.9392 8.86C44.2192 8.86 43.5692 9.02 42.9892 9.34C42.4292 9.64 41.9492 10.05 41.5492 10.57C41.1492 11.07 40.8392 11.64 40.6192 12.28C40.3992 12.92 40.2892 13.58 40.2892 14.26C40.2892 14.98 40.4092 15.65 40.6492 16.27C40.9092 16.89 41.2592 17.45 41.6992 17.95C42.1392 18.43 42.6592 18.81 43.2592 19.09C43.8592 19.35 44.4992 19.48 45.1792 19.48ZM70.8264 22H67.5264V13.21C67.5264 11.79 67.2664 10.73 66.7464 10.03C66.2264 9.33 65.4964 8.98 64.5564 8.98C63.9764 8.98 63.3764 9.14 62.7564 9.46C62.1364 9.78 61.5864 10.22 61.1064 10.78C60.6264 11.32 60.2764 11.95 60.0564 12.67V22H56.7564V0.0999994H60.0564V9.46C60.6564 8.4 61.4764 7.57 62.5164 6.97C63.5564 6.35 64.6764 6.04 65.8764 6.04C66.8564 6.04 67.6664 6.21 68.3064 6.55C68.9464 6.89 69.4464 7.36 69.8064 7.96C70.1864 8.54 70.4464 9.22 70.5864 10C70.7464 10.76 70.8264 11.57 70.8264 12.43V22ZM83.2696 21.19C82.9896 21.33 82.6396 21.48 82.2196 21.64C81.7996 21.8 81.3196 21.94 80.7796 22.06C80.2596 22.18 79.7196 22.24 79.1596 22.24C78.4796 22.24 77.8496 22.12 77.2696 21.88C76.6896 21.64 76.2196 21.26 75.8596 20.74C75.5196 20.2 75.3496 19.51 75.3496 18.67V8.86H73.2796V6.31H75.3496V1.15H78.6496V6.31H82.0696V8.86H78.6496V17.62C78.6896 18.16 78.8596 18.56 79.1596 18.82C79.4796 19.08 79.8696 19.21 80.3296 19.21C80.7896 19.21 81.2296 19.13 81.6496 18.97C82.0696 18.81 82.3796 18.68 82.5796 18.58L83.2696 21.19Z" fill="url(#paint0_linear_1238_844)"/>
<path d="M107.427 22L97.1973 11.17C96.3373 10.25 95.6573 9.47 95.1573 8.83C94.6573 8.19 94.2973 7.6 94.0773 7.06C93.8573 6.52 93.7473 5.96 93.7473 5.38C93.7473 4.4 93.9873 3.54 94.4673 2.8C94.9673 2.06 95.6473 1.48 96.5073 1.06C97.3673 0.639999 98.3273 0.429999 99.3873 0.429999C100.367 0.429999 101.267 0.609999 102.087 0.969999C102.907 1.31 103.567 1.82 104.067 2.5C104.567 3.16 104.817 3.98 104.817 4.96C104.817 5.88 104.577 6.71 104.097 7.45C103.617 8.19 102.977 8.87 102.177 9.49C101.377 10.11 100.487 10.72 99.5073 11.32C98.7473 11.82 98.0573 12.32 97.4373 12.82C96.8173 13.3 96.3273 13.82 95.9673 14.38C95.6273 14.92 95.4573 15.53 95.4573 16.21C95.4573 16.89 95.6473 17.5 96.0273 18.04C96.4073 18.56 96.9173 18.97 97.5573 19.27C98.1973 19.55 98.8973 19.69 99.6573 19.69C100.597 19.69 101.487 19.47 102.327 19.03C103.167 18.59 103.917 17.97 104.577 17.17C105.237 16.35 105.747 15.39 106.107 14.29C106.487 13.19 106.677 11.99 106.677 10.69H109.377C109.377 12.45 109.097 14.04 108.537 15.46C107.997 16.88 107.257 18.1 106.317 19.12C105.397 20.14 104.327 20.93 103.107 21.49C101.907 22.03 100.637 22.3 99.2973 22.3C97.9173 22.3 96.6973 22.03 95.6373 21.49C94.5773 20.93 93.7473 20.19 93.1473 19.27C92.5673 18.35 92.2773 17.32 92.2773 16.18C92.2773 15.06 92.5273 14.09 93.0273 13.27C93.5473 12.43 94.2073 11.69 95.0073 11.05C95.8273 10.39 96.6473 9.8 97.4673 9.28C98.3473 8.72 99.1073 8.23 99.7473 7.81C100.387 7.37 100.887 6.93 101.247 6.49C101.607 6.03 101.787 5.54 101.787 5.02C101.787 4.38 101.557 3.87 101.097 3.49C100.657 3.09 100.087 2.89 99.3873 2.89C98.8673 2.89 98.4073 3 98.0073 3.22C97.6273 3.44 97.3273 3.73 97.1073 4.09C96.8873 4.45 96.7773 4.85 96.7773 5.29C96.7773 5.59 96.8573 5.9 97.0173 6.22C97.1773 6.52 97.4773 6.92 97.9173 7.42C98.3573 7.9 98.9673 8.56 99.7473 9.4L111.777 22H107.427ZM14.2471 41.71C14.0471 41.49 13.7571 41.26 13.3771 41.02C12.9971 40.76 12.5471 40.52 12.0271 40.3C11.5071 40.08 10.9471 39.9 10.3471 39.76C9.74707 39.62 9.12707 39.55 8.48707 39.55C7.08707 39.55 6.04707 39.81 5.36707 40.33C4.68707 40.85 4.34707 41.57 4.34707 42.49C4.34707 43.17 4.53707 43.71 4.91707 44.11C5.29707 44.49 5.87707 44.81 6.65707 45.07C7.43707 45.33 8.41707 45.61 9.59707 45.91C11.0371 46.25 12.2871 46.66 13.3471 47.14C14.4071 47.6 15.2171 48.22 15.7771 49C16.3371 49.78 16.6171 50.81 16.6171 52.09C16.6171 53.17 16.4171 54.1 16.0171 54.88C15.6171 55.66 15.0571 56.3 14.3371 56.8C13.6171 57.28 12.7871 57.64 11.8471 57.88C10.9071 58.1 9.89707 58.21 8.81707 58.21C7.75707 58.21 6.69707 58.1 5.63707 57.88C4.59707 57.66 3.59707 57.34 2.63707 56.92C1.69707 56.48 0.82707 55.95 0.0270703 55.33L1.55707 52.45C1.81707 52.71 2.18707 53 2.66707 53.32C3.16707 53.62 3.73707 53.91 4.37707 54.19C5.03707 54.47 5.74707 54.71 6.50707 54.91C7.28707 55.09 8.07707 55.18 8.87707 55.18C10.2171 55.18 11.2371 54.95 11.9371 54.49C12.6571 54.01 13.0171 53.33 13.0171 52.45C13.0171 51.73 12.7871 51.16 12.3271 50.74C11.8671 50.3 11.1971 49.93 10.3171 49.63C9.43707 49.33 8.38707 49.03 7.16707 48.73C5.76707 48.35 4.59707 47.94 3.65707 47.5C2.71707 47.04 2.00707 46.46 1.52707 45.76C1.06707 45.04 0.83707 44.13 0.83707 43.03C0.83707 41.63 1.17707 40.45 1.85707 39.49C2.53707 38.51 3.45707 37.78 4.61707 37.3C5.79707 36.8 7.11707 36.55 8.57707 36.55C9.53707 36.55 10.4471 36.66 11.3071 36.88C12.1671 37.08 12.9671 37.36 13.7071 37.72C14.4671 38.08 15.1571 38.49 15.7771 38.95L14.2471 41.71ZM37.4183 58.3C36.1583 58.3 35.0483 58 34.0883 57.4C33.1283 56.8 32.3683 56.02 31.8083 55.06V64.39H28.5083V42.31H31.4183V45.13C32.0183 44.19 32.7983 43.44 33.7583 42.88C34.7183 42.32 35.7883 42.04 36.9683 42.04C38.0483 42.04 39.0383 42.26 39.9383 42.7C40.8383 43.12 41.6183 43.71 42.2783 44.47C42.9383 45.23 43.4483 46.1 43.8083 47.08C44.1883 48.04 44.3783 49.06 44.3783 50.14C44.3783 51.64 44.0783 53.01 43.4783 54.25C42.8983 55.49 42.0783 56.48 41.0183 57.22C39.9783 57.94 38.7783 58.3 37.4183 58.3ZM36.3383 55.48C37.0383 55.48 37.6683 55.33 38.2283 55.03C38.8083 54.73 39.2983 54.33 39.6983 53.83C40.1183 53.33 40.4383 52.76 40.6583 52.12C40.8783 51.48 40.9883 50.82 40.9883 50.14C40.9883 49.42 40.8683 48.74 40.6283 48.1C40.3883 47.46 40.0383 46.9 39.5783 46.42C39.1383 45.94 38.6183 45.56 38.0183 45.28C37.4383 45 36.7983 44.86 36.0983 44.86C35.6783 44.86 35.2383 44.94 34.7783 45.1C34.3183 45.26 33.8883 45.48 33.4883 45.76C33.0883 46.04 32.7383 46.37 32.4383 46.75C32.1383 47.13 31.9283 47.53 31.8083 47.95V52.06C32.0883 52.7 32.4583 53.28 32.9183 53.8C33.3783 54.3 33.9083 54.71 34.5083 55.03C35.1083 55.33 35.7183 55.48 36.3383 55.48ZM55.2062 53.41C55.2062 52.41 55.4862 51.54 56.0462 50.8C56.6262 50.04 57.4162 49.46 58.4162 49.06C59.4162 48.64 60.5762 48.43 61.8962 48.43C62.5962 48.43 63.3062 48.48 64.0262 48.58C64.7662 48.68 65.4162 48.84 65.9762 49.06V48.07C65.9762 46.97 65.6462 46.11 64.9862 45.49C64.3262 44.87 63.3762 44.56 62.1362 44.56C61.2562 44.56 60.4262 44.72 59.6462 45.04C58.8662 45.34 58.0362 45.77 57.1562 46.33L56.0462 44.11C57.0862 43.41 58.1262 42.89 59.1662 42.55C60.2262 42.21 61.3362 42.04 62.4962 42.04C64.5962 42.04 66.2462 42.6 67.4462 43.72C68.6662 44.82 69.2762 46.39 69.2762 48.43V54.28C69.2762 54.66 69.3362 54.93 69.4562 55.09C69.5962 55.25 69.8262 55.34 70.1462 55.36V58C69.8462 58.06 69.5762 58.1 69.3362 58.12C69.0962 58.14 68.8962 58.15 68.7362 58.15C68.0362 58.15 67.5062 57.98 67.1462 57.64C66.7862 57.3 66.5762 56.9 66.5162 56.44L66.4262 55.54C65.7462 56.42 64.8762 57.1 63.8162 57.58C62.7562 58.06 61.6862 58.3 60.6062 58.3C59.5662 58.3 58.6362 58.09 57.8162 57.67C56.9962 57.23 56.3562 56.64 55.8962 55.9C55.4362 55.16 55.2062 54.33 55.2062 53.41ZM65.1962 54.37C65.4362 54.11 65.6262 53.85 65.7662 53.59C65.9062 53.33 65.9762 53.1 65.9762 52.9V51.1C65.4162 50.88 64.8262 50.72 64.2062 50.62C63.5862 50.5 62.9762 50.44 62.3762 50.44C61.1762 50.44 60.1962 50.68 59.4362 51.16C58.6962 51.64 58.3262 52.3 58.3262 53.14C58.3262 53.6 58.4462 54.04 58.6862 54.46C58.9462 54.88 59.3062 55.22 59.7662 55.48C60.2462 55.74 60.8362 55.87 61.5362 55.87C62.2562 55.87 62.9462 55.73 63.6062 55.45C64.2662 55.17 64.7962 54.81 65.1962 54.37ZM89.3898 58.3C88.1698 58.3 87.0598 58.09 86.0598 57.67C85.0798 57.23 84.2298 56.63 83.5098 55.87C82.7898 55.11 82.2298 54.24 81.8298 53.26C81.4498 52.28 81.2598 51.24 81.2598 50.14C81.2598 48.66 81.5898 47.31 82.2498 46.09C82.9298 44.87 83.8698 43.89 85.0698 43.15C86.2898 42.41 87.7298 42.04 89.3898 42.04C90.9898 42.04 92.3798 42.4 93.5598 43.12C94.7598 43.82 95.6398 44.76 96.1998 45.94L92.9898 46.96C92.6298 46.3 92.1198 45.79 91.4598 45.43C90.8198 45.05 90.1098 44.86 89.3298 44.86C88.4498 44.86 87.6498 45.09 86.9298 45.55C86.2298 45.99 85.6698 46.61 85.2498 47.41C84.8498 48.19 84.6498 49.1 84.6498 50.14C84.6498 51.14 84.8598 52.05 85.2798 52.87C85.6998 53.67 86.2598 54.31 86.9598 54.79C87.6798 55.25 88.4798 55.48 89.3598 55.48C89.8998 55.48 90.4198 55.39 90.9198 55.21C91.4398 55.01 91.8898 54.75 92.2698 54.43C92.6498 54.09 92.9198 53.72 93.0798 53.32L96.3198 54.28C95.9798 55.06 95.4698 55.75 94.7898 56.35C94.1298 56.95 93.3398 57.43 92.4198 57.79C91.5198 58.13 90.5098 58.3 89.3898 58.3ZM115.001 58.3C113.781 58.3 112.671 58.09 111.671 57.67C110.691 57.23 109.841 56.64 109.121 55.9C108.401 55.14 107.841 54.28 107.441 53.32C107.061 52.34 106.871 51.3 106.871 50.2C106.871 48.72 107.211 47.37 107.891 46.15C108.571 44.91 109.521 43.92 110.741 43.18C111.961 42.42 113.391 42.04 115.031 42.04C116.671 42.04 118.081 42.42 119.261 43.18C120.461 43.92 121.391 44.9 122.051 46.12C122.711 47.34 123.041 48.65 123.041 50.05C123.041 50.29 123.031 50.52 123.011 50.74C122.991 50.94 122.971 51.11 122.951 51.25H110.381C110.441 52.17 110.691 52.98 111.131 53.68C111.591 54.36 112.171 54.9 112.871 55.3C113.571 55.68 114.321 55.87 115.121 55.87C116.001 55.87 116.831 55.65 117.611 55.21C118.411 54.77 118.951 54.19 119.231 53.47L122.051 54.28C121.711 55.04 121.191 55.73 120.491 56.35C119.811 56.95 119.001 57.43 118.061 57.79C117.121 58.13 116.101 58.3 115.001 58.3ZM110.291 49.06H119.771C119.711 48.16 119.451 47.37 118.991 46.69C118.551 45.99 117.981 45.45 117.281 45.07C116.601 44.67 115.841 44.47 115.001 44.47C114.181 44.47 113.421 44.67 112.721 45.07C112.041 45.45 111.481 45.99 111.041 46.69C110.601 47.37 110.351 48.16 110.291 49.06Z" fill="black"/>
<defs>
<linearGradient id="paint0_linear_1238_844" x1="-0.999999" y1="10.25" x2="124" y2="10.25" gradientUnits="userSpaceOnUse">
<stop stop-color="#7C7AFF"/>
<stop offset="1" stop-color="#FF7373"/>
</linearGradient>
</defs>
</svg>
