<svg width="247" height="129" viewBox="0 0 247 129" fill="none" xmlns="http://www.w3.org/2000/svg">
<path d="M27.048 44V1.4H33.768V38.06H56.628V44H27.048ZM61.2471 44V12.62H67.8471V44H61.2471ZM61.2471 7.46V0.199999H67.8471V7.46H61.2471ZM88.1984 44.3C86.0784 44.3 84.1384 43.88 82.3784 43.04C80.6184 42.16 79.0984 40.98 77.8184 39.5C76.5784 38.02 75.5984 36.32 74.8784 34.4C74.1984 32.48 73.8584 30.46 73.8584 28.34C73.8584 26.1 74.2184 24 74.9384 22.04C75.6584 20.08 76.6584 18.36 77.9384 16.88C79.2584 15.36 80.7984 14.18 82.5584 13.34C84.3184 12.5 86.2784 12.08 88.4384 12.08C90.9584 12.08 93.1584 12.68 95.0384 13.88C96.9584 15.08 98.5384 16.64 99.7784 18.56V12.62H105.598V43.1C105.598 46.14 104.858 48.72 103.378 50.84C101.938 52.96 99.9584 54.58 97.4384 55.7C94.9184 56.82 92.0784 57.38 88.9184 57.38C85.4384 57.38 82.5584 56.78 80.2784 55.58C77.9984 54.38 76.0584 52.74 74.4584 50.66L78.1784 47.18C79.3784 48.86 80.9184 50.14 82.7984 51.02C84.7184 51.9 86.7584 52.34 88.9184 52.34C90.7184 52.34 92.3784 52 93.8984 51.32C95.4584 50.68 96.6984 49.66 97.6184 48.26C98.5384 46.9 98.9984 45.18 98.9984 43.1V38.3C97.8784 40.18 96.3384 41.66 94.3784 42.74C92.4184 43.78 90.3584 44.3 88.1984 44.3ZM90.3584 38.96C91.3584 38.96 92.3184 38.8 93.2384 38.48C94.1584 38.12 94.9984 37.66 95.7584 37.1C96.5584 36.5 97.2384 35.84 97.7984 35.12C98.3584 34.36 98.7584 33.56 98.9984 32.72V24.5C98.4784 23.14 97.7384 21.96 96.7784 20.96C95.8184 19.92 94.7384 19.12 93.5384 18.56C92.3384 18 91.1184 17.72 89.8784 17.72C88.4384 17.72 87.1384 18.04 85.9784 18.68C84.8584 19.28 83.8984 20.1 83.0984 21.14C82.2984 22.14 81.6784 23.28 81.2384 24.56C80.7984 25.84 80.5784 27.16 80.5784 28.52C80.5784 29.96 80.8184 31.3 81.2984 32.54C81.8184 33.78 82.5184 34.9 83.3984 35.9C84.2784 36.86 85.3184 37.62 86.5184 38.18C87.7184 38.7 88.9984 38.96 90.3584 38.96ZM141.653 44H135.053V26.42C135.053 23.58 134.533 21.46 133.493 20.06C132.453 18.66 130.993 17.96 129.113 17.96C127.953 17.96 126.753 18.28 125.513 18.92C124.273 19.56 123.173 20.44 122.213 21.56C121.253 22.64 120.553 23.9 120.113 25.34V44H113.513V0.199999H120.113V18.92C121.313 16.8 122.953 15.14 125.033 13.94C127.113 12.7 129.353 12.08 131.753 12.08C133.713 12.08 135.333 12.42 136.613 13.1C137.893 13.78 138.893 14.72 139.613 15.92C140.373 17.08 140.893 18.44 141.173 20C141.493 21.52 141.653 23.14 141.653 24.86V44ZM166.539 42.38C165.979 42.66 165.279 42.96 164.439 43.28C163.599 43.6 162.639 43.88 161.559 44.12C160.519 44.36 159.439 44.48 158.319 44.48C156.959 44.48 155.699 44.24 154.539 43.76C153.379 43.28 152.439 42.52 151.719 41.48C151.039 40.4 150.699 39.02 150.699 37.34V17.72H146.559V12.62H150.699V2.3H157.299V12.62H164.139V17.72H157.299V35.24C157.379 36.32 157.719 37.12 158.319 37.64C158.959 38.16 159.739 38.42 160.659 38.42C161.579 38.42 162.459 38.26 163.299 37.94C164.139 37.62 164.759 37.36 165.159 37.16L166.539 42.38Z" fill="url(#paint0_linear_1201_799)"/>
<path d="M214.855 44L194.395 22.34C192.675 20.5 191.315 18.94 190.315 17.66C189.315 16.38 188.595 15.2 188.155 14.12C187.715 13.04 187.495 11.92 187.495 10.76C187.495 8.8 187.975 7.08 188.935 5.6C189.935 4.12 191.295 2.96 193.015 2.12C194.735 1.28 196.655 0.859998 198.775 0.859998C200.735 0.859998 202.535 1.22 204.175 1.94C205.815 2.62 207.135 3.64 208.135 5C209.135 6.32 209.635 7.96 209.635 9.92C209.635 11.76 209.155 13.42 208.195 14.9C207.235 16.38 205.955 17.74 204.355 18.98C202.755 20.22 200.975 21.44 199.015 22.64C197.495 23.64 196.115 24.64 194.875 25.64C193.635 26.6 192.655 27.64 191.935 28.76C191.255 29.84 190.915 31.06 190.915 32.42C190.915 33.78 191.295 35 192.055 36.08C192.815 37.12 193.835 37.94 195.115 38.54C196.395 39.1 197.795 39.38 199.315 39.38C201.195 39.38 202.975 38.94 204.655 38.06C206.335 37.18 207.835 35.94 209.155 34.34C210.475 32.7 211.495 30.78 212.215 28.58C212.975 26.38 213.355 23.98 213.355 21.38H218.755C218.755 24.9 218.195 28.08 217.075 30.92C215.995 33.76 214.515 36.2 212.635 38.24C210.795 40.28 208.655 41.86 206.215 42.98C203.815 44.06 201.275 44.6 198.595 44.6C195.835 44.6 193.395 44.06 191.275 42.98C189.155 41.86 187.495 40.38 186.295 38.54C185.135 36.7 184.555 34.64 184.555 32.36C184.555 30.12 185.055 28.18 186.055 26.54C187.095 24.86 188.415 23.38 190.015 22.1C191.655 20.78 193.295 19.6 194.935 18.56C196.695 17.44 198.215 16.46 199.495 15.62C200.775 14.74 201.775 13.86 202.495 12.98C203.215 12.06 203.575 11.08 203.575 10.04C203.575 8.76 203.115 7.74 202.195 6.98C201.315 6.18 200.175 5.78 198.775 5.78C197.735 5.78 196.815 6 196.015 6.44C195.255 6.88 194.655 7.46 194.215 8.18C193.775 8.9 193.555 9.7 193.555 10.58C193.555 11.18 193.715 11.8 194.035 12.44C194.355 13.04 194.955 13.84 195.835 14.84C196.715 15.8 197.935 17.12 199.495 18.8L223.555 44H214.855ZM28.4941 83.42C28.0941 82.98 27.5141 82.52 26.7541 82.04C25.9941 81.52 25.0941 81.04 24.0541 80.6C23.0141 80.16 21.8941 79.8 20.6941 79.52C19.4941 79.24 18.2541 79.1 16.9741 79.1C14.1741 79.1 12.0941 79.62 10.7341 80.66C9.37414 81.7 8.69414 83.14 8.69414 84.98C8.69414 86.34 9.07414 87.42 9.83414 88.22C10.5941 88.98 11.7541 89.62 13.3141 90.14C14.8741 90.66 16.8341 91.22 19.1941 91.82C22.0741 92.5 24.5741 93.32 26.6941 94.28C28.8141 95.2 30.4341 96.44 31.5541 98C32.6741 99.56 33.2341 101.62 33.2341 104.18C33.2341 106.34 32.8341 108.2 32.0341 109.76C31.2341 111.32 30.1141 112.6 28.6741 113.6C27.2341 114.56 25.5741 115.28 23.6941 115.76C21.8141 116.2 19.7941 116.42 17.6341 116.42C15.5141 116.42 13.3941 116.2 11.2741 115.76C9.19414 115.32 7.19414 114.68 5.27414 113.84C3.39414 112.96 1.65414 111.9 0.0541407 110.66L3.11414 104.9C3.63414 105.42 4.37414 106 5.33414 106.64C6.33414 107.24 7.47414 107.82 8.75414 108.38C10.0741 108.94 11.4941 109.42 13.0141 109.82C14.5741 110.18 16.1541 110.36 17.7541 110.36C20.4341 110.36 22.4741 109.9 23.8741 108.98C25.3141 108.02 26.0341 106.66 26.0341 104.9C26.0341 103.46 25.5741 102.32 24.6541 101.48C23.7341 100.6 22.3941 99.86 20.6341 99.26C18.8741 98.66 16.7741 98.06 14.3341 97.46C11.5341 96.7 9.19414 95.88 7.31414 95C5.43414 94.08 4.01414 92.92 3.05414 91.52C2.13414 90.08 1.67414 88.26 1.67414 86.06C1.67414 83.26 2.35414 80.9 3.71414 78.98C5.07414 77.02 6.91414 75.56 9.23414 74.6C11.5941 73.6 14.2341 73.1 17.1541 73.1C19.0741 73.1 20.8941 73.32 22.6141 73.76C24.3341 74.16 25.9341 74.72 27.4141 75.44C28.9341 76.16 30.3141 76.98 31.5541 77.9L28.4941 83.42ZM74.8366 116.6C72.3166 116.6 70.0966 116 68.1766 114.8C66.2566 113.6 64.7366 112.04 63.6166 110.12V128.78H57.0166V84.62H62.8366V90.26C64.0366 88.38 65.5966 86.88 67.5166 85.76C69.4366 84.64 71.5766 84.08 73.9366 84.08C76.0966 84.08 78.0766 84.52 79.8766 85.4C81.6766 86.24 83.2366 87.42 84.5566 88.94C85.8766 90.46 86.8966 92.2 87.6166 94.16C88.3766 96.08 88.7566 98.12 88.7566 100.28C88.7566 103.28 88.1566 106.02 86.9566 108.5C85.7966 110.98 84.1566 112.96 82.0366 114.44C79.9566 115.88 77.5566 116.6 74.8366 116.6ZM72.6766 110.96C74.0766 110.96 75.3366 110.66 76.4566 110.06C77.6166 109.46 78.5966 108.66 79.3966 107.66C80.2366 106.66 80.8766 105.52 81.3166 104.24C81.7566 102.96 81.9766 101.64 81.9766 100.28C81.9766 98.84 81.7366 97.48 81.2566 96.2C80.7766 94.92 80.0766 93.8 79.1566 92.84C78.2766 91.88 77.2366 91.12 76.0366 90.56C74.8766 90 73.5966 89.72 72.1966 89.72C71.3566 89.72 70.4766 89.88 69.5566 90.2C68.6366 90.52 67.7766 90.96 66.9766 91.52C66.1766 92.08 65.4766 92.74 64.8766 93.5C64.2766 94.26 63.8566 95.06 63.6166 95.9V104.12C64.1766 105.4 64.9166 106.56 65.8366 107.6C66.7566 108.6 67.8166 109.42 69.0166 110.06C70.2166 110.66 71.4366 110.96 72.6766 110.96ZM110.412 106.82C110.412 104.82 110.972 103.08 112.092 101.6C113.252 100.08 114.832 98.92 116.832 98.12C118.832 97.28 121.152 96.86 123.792 96.86C125.192 96.86 126.612 96.96 128.052 97.16C129.532 97.36 130.832 97.68 131.952 98.12V96.14C131.952 93.94 131.292 92.22 129.972 90.98C128.652 89.74 126.752 89.12 124.272 89.12C122.512 89.12 120.852 89.44 119.292 90.08C117.732 90.68 116.072 91.54 114.312 92.66L112.092 88.22C114.172 86.82 116.252 85.78 118.332 85.1C120.452 84.42 122.672 84.08 124.992 84.08C129.192 84.08 132.492 85.2 134.892 87.44C137.332 89.64 138.552 92.78 138.552 96.86V108.56C138.552 109.32 138.672 109.86 138.912 110.18C139.192 110.5 139.652 110.68 140.292 110.72V116C139.692 116.12 139.152 116.2 138.672 116.24C138.192 116.28 137.792 116.3 137.472 116.3C136.072 116.3 135.012 115.96 134.292 115.28C133.572 114.6 133.152 113.8 133.032 112.88L132.852 111.08C131.492 112.84 129.752 114.2 127.632 115.16C125.512 116.12 123.372 116.6 121.212 116.6C119.132 116.6 117.272 116.18 115.632 115.34C113.992 114.46 112.712 113.28 111.792 111.8C110.872 110.32 110.412 108.66 110.412 106.82ZM130.392 108.74C130.872 108.22 131.252 107.7 131.532 107.18C131.812 106.66 131.952 106.2 131.952 105.8V102.2C130.832 101.76 129.652 101.44 128.412 101.24C127.172 101 125.952 100.88 124.752 100.88C122.352 100.88 120.392 101.36 118.872 102.32C117.392 103.28 116.652 104.6 116.652 106.28C116.652 107.2 116.892 108.08 117.372 108.92C117.892 109.76 118.612 110.44 119.532 110.96C120.492 111.48 121.672 111.74 123.072 111.74C124.512 111.74 125.892 111.46 127.212 110.9C128.532 110.34 129.592 109.62 130.392 108.74ZM178.78 116.6C176.34 116.6 174.12 116.18 172.12 115.34C170.16 114.46 168.46 113.26 167.02 111.74C165.58 110.22 164.46 108.48 163.66 106.52C162.9 104.56 162.52 102.48 162.52 100.28C162.52 97.32 163.18 94.62 164.5 92.18C165.86 89.74 167.74 87.78 170.14 86.3C172.58 84.82 175.46 84.08 178.78 84.08C181.98 84.08 184.76 84.8 187.12 86.24C189.52 87.64 191.28 89.52 192.4 91.88L185.98 93.92C185.26 92.6 184.24 91.58 182.92 90.86C181.64 90.1 180.22 89.72 178.66 89.72C176.9 89.72 175.3 90.18 173.86 91.1C172.46 91.98 171.34 93.22 170.5 94.82C169.7 96.38 169.3 98.2 169.3 100.28C169.3 102.28 169.72 104.1 170.56 105.74C171.4 107.34 172.52 108.62 173.92 109.58C175.36 110.5 176.96 110.96 178.72 110.96C179.8 110.96 180.84 110.78 181.84 110.42C182.88 110.02 183.78 109.5 184.54 108.86C185.3 108.18 185.84 107.44 186.16 106.64L192.64 108.56C191.96 110.12 190.94 111.5 189.58 112.7C188.26 113.9 186.68 114.86 184.84 115.58C183.04 116.26 181.02 116.6 178.78 116.6ZM230.002 116.6C227.562 116.6 225.342 116.18 223.342 115.34C221.382 114.46 219.682 113.28 218.242 111.8C216.802 110.28 215.682 108.56 214.882 106.64C214.122 104.68 213.742 102.6 213.742 100.4C213.742 97.44 214.422 94.74 215.782 92.3C217.142 89.82 219.042 87.84 221.482 86.36C223.922 84.84 226.782 84.08 230.062 84.08C233.342 84.08 236.162 84.84 238.522 86.36C240.922 87.84 242.782 89.8 244.102 92.24C245.422 94.68 246.082 97.3 246.082 100.1C246.082 100.58 246.062 101.04 246.022 101.48C245.982 101.88 245.942 102.22 245.902 102.5H220.762C220.882 104.34 221.382 105.96 222.262 107.36C223.182 108.72 224.342 109.8 225.742 110.6C227.142 111.36 228.642 111.74 230.242 111.74C232.002 111.74 233.662 111.3 235.222 110.42C236.822 109.54 237.902 108.38 238.462 106.94L244.102 108.56C243.422 110.08 242.382 111.46 240.982 112.7C239.622 113.9 238.002 114.86 236.122 115.58C234.242 116.26 232.202 116.6 230.002 116.6ZM220.582 98.12H239.542C239.422 96.32 238.902 94.74 237.982 93.38C237.102 91.98 235.962 90.9 234.562 90.14C233.202 89.34 231.682 88.94 230.002 88.94C228.362 88.94 226.842 89.34 225.442 90.14C224.082 90.9 222.962 91.98 222.082 93.38C221.202 94.74 220.702 96.32 220.582 98.12Z" fill="white"/>
<defs>
<linearGradient id="paint0_linear_1201_799" x1="-2" y1="21.5" x2="248" y2="21.5" gradientUnits="userSpaceOnUse">
<stop stop-color="#7C7AFF"/>
<stop offset="1" stop-color="#FF7373"/>
</linearGradient>
</defs>
</svg>
